<svg width="50" height="50" viewBox="0 0 50 50" fill="none" xmlns="http://www.w3.org/2000/svg">
<ellipse cx="25" cy="25" rx="25" ry="25" transform="rotate(-180 25 25)" fill="url(#paint0_linear_748_9543)"/>
<path d="M36 30.0763C35.3984 31.4291 35.1106 32.034 34.3379 33.2295C33.2584 34.899 31.7342 36.9824 29.8497 36.9967C28.1736 37.011 27.741 35.8861 25.4662 35.9045C23.1914 35.9157 22.7175 37.0172 21.0394 36.9998C19.155 36.9824 17.7122 35.1054 16.6317 33.4389C13.6104 28.7644 13.2914 23.2857 15.1587 20.3706C16.4797 18.3036 18.5704 17.0897 20.5333 17.0897C22.5324 17.0897 23.789 18.2055 25.442 18.2055C27.0458 18.2055 28.0227 17.0866 30.3347 17.0866C32.0833 17.0866 33.9325 18.0543 35.2535 19.7238C30.9313 22.129 31.6335 28.3986 36 30.0763ZM28.5801 15.2209C29.4211 14.1246 30.059 12.5776 29.8276 11C28.4553 11.095 26.8506 11.985 25.9129 13.1375C25.0637 14.1869 24.3595 15.7461 24.6341 17.2542C26.1312 17.3033 27.6806 16.397 28.5801 15.2209Z" fill="white"/>
<defs>
<linearGradient id="paint0_linear_748_9543" x1="-3.22165" y1="-10" x2="59.6553" y2="-4.84043" gradientUnits="userSpaceOnUse">
<stop stop-color="#005EC7"/>
<stop offset="1" stop-color="#0080B7"/>
</linearGradient>
</defs>
</svg>
