<svg width="20" height="23" viewBox="0 0 20 23" fill="none" xmlns="http://www.w3.org/2000/svg">
<path d="M18.2682 15.3604C17.8875 14.2083 17.693 13.0032 17.6919 11.7901V8.7929C17.7196 6.89372 17.0398 5.05179 15.784 3.62347C14.5325 2.19289 12.7956 1.27306 10.906 1.04025C9.86176 0.93224 8.79949 1.04025 7.79138 1.38078C6.78327 1.7033 5.86544 2.24185 5.09206 2.96041C4.31482 3.66044 3.69532 4.51685 3.27445 5.47312C2.85149 6.42902 2.63073 7.4616 2.62595 8.50637V11.8067C2.62375 13.0147 2.42924 14.2147 2.04968 15.3619L1.1499 18.0157L1.87062 19.0028H7.14439C7.14439 19.7918 7.46788 20.5629 8.0261 21.1209C8.58282 21.676 9.35771 22 10.1507 22C10.9421 22 11.7155 21.6775 12.2737 21.1209C12.8319 20.5644 13.1569 19.7918 13.1569 19.0028H18.4307L19.1499 18.0157L18.2682 15.3604ZM11.2114 20.0813C11.073 20.2221 10.908 20.3342 10.726 20.4112C10.5439 20.4882 10.3484 20.5285 10.1507 20.5299C9.95256 20.5285 9.75669 20.488 9.57437 20.4108C9.39204 20.3336 9.22687 20.2211 9.08838 20.0798C8.94691 19.9419 8.83419 19.7775 8.75672 19.596C8.67925 19.4145 8.63856 19.2195 8.63699 19.0223H11.6448C11.651 19.2191 11.6158 19.415 11.5415 19.5974C11.4671 19.7799 11.3552 19.9447 11.2129 20.0813H11.2114ZM2.91334 17.5161L3.47156 15.845C3.90687 14.5431 4.13186 13.1805 4.13812 11.8081V8.50637C4.13812 7.6618 4.31867 6.83673 4.66023 6.08217C5.00178 5.31111 5.48778 4.62855 6.11822 4.072C6.74867 3.49895 7.48744 3.06692 8.27888 2.8164C9.08838 2.54638 9.93399 2.45637 10.7615 2.54638C12.2782 2.74521 13.6688 3.4926 14.6691 4.64655C15.6696 5.80193 16.2075 7.28471 16.1797 8.8109V11.8262C16.1797 13.1898 16.3964 14.5534 16.8463 15.863L17.4045 17.5326H2.91484V17.5146L2.91334 17.5161Z" fill="white" stroke="white" stroke-width="0.4"/>
</svg>
