<svg width="50" height="50" viewBox="0 0 50 50" fill="none" xmlns="http://www.w3.org/2000/svg">
<circle cx="25" cy="25" r="25" fill="#124877"/>
<path d="M23.9043 31.8618L20.1912 19.7626H20.0963C20.1103 20.051 20.1314 20.487 20.1595 21.0707C20.1947 21.6473 20.2263 22.2626 20.2545 22.9167C20.2826 23.5707 20.2967 24.1614 20.2967 24.6888V31.8618H17.3747V16.4398H21.8262L25.476 28.2331H25.5393L29.4106 16.4398H33.8621V31.8618H30.8136V24.5622C30.8136 24.077 30.8206 23.5179 30.8347 22.885C30.8558 22.2521 30.8804 21.6508 30.9085 21.0812C30.9366 20.5046 30.9577 20.0721 30.9718 19.7837H30.8769L26.9001 31.8618H23.9043Z" fill="white"/>
</svg>
