<svg width="24" height="24" viewBox="0 0 24 24" fill="none" xmlns="http://www.w3.org/2000/svg">
<path d="M12.7204 10.8C12.2404 10.68 11.7604 10.44 11.4004 10.08C11.0404 9.96002 10.9204 9.60002 10.9204 9.36002C10.9204 9.12002 11.0404 8.76002 11.2804 8.64002C11.6404 8.40002 12.0004 8.16002 12.3604 8.28002C13.0804 8.28002 13.6804 8.64002 14.0404 9.12002L15.1204 7.68002C14.7604 7.32002 14.4004 7.08002 14.0404 6.84002C13.6804 6.60002 13.2004 6.48002 12.7204 6.48002V4.80002H11.2804V6.48002C10.6804 6.60002 10.0804 6.96002 9.60039 7.44002C9.12039 8.04002 8.76039 8.76002 8.88039 9.48002C8.88039 10.2 9.12039 10.92 9.60039 11.4C10.2004 12 11.0404 12.36 11.7604 12.72C12.1204 12.84 12.6004 13.08 12.9604 13.32C13.2004 13.56 13.3204 13.92 13.3204 14.28C13.3204 14.64 13.2004 15 12.9604 15.36C12.6004 15.72 12.1204 15.84 11.7604 15.84C11.2804 15.84 10.6804 15.72 10.3204 15.36C9.96039 15.12 9.60039 14.76 9.36039 14.4L8.16039 15.72C8.52039 16.2 8.88039 16.56 9.36039 16.92C9.96039 17.28 10.6804 17.64 11.4004 17.64V19.2H12.7204V17.4C13.4404 17.28 14.0404 16.92 14.5204 16.44C15.1204 15.84 15.4804 14.88 15.4804 14.04C15.4804 13.32 15.2404 12.48 14.6404 12C14.0404 11.4 13.4404 11.04 12.7204 10.8ZM12.0004 2.40002C6.72039 2.40002 2.40039 6.72002 2.40039 12C2.40039 17.28 6.72039 21.6 12.0004 21.6C17.2804 21.6 21.6004 17.28 21.6004 12C21.6004 6.72002 17.2804 2.40002 12.0004 2.40002ZM12.0004 20.28C7.44039 20.28 3.72039 16.56 3.72039 12C3.72039 7.44002 7.44039 3.72002 12.0004 3.72002C16.5604 3.72002 20.2804 7.44002 20.2804 12C20.2804 16.56 16.5604 20.28 12.0004 20.28Z" fill="white"/>
</svg>
