<svg width="30" height="40" viewBox="0 0 30 40" fill="none" xmlns="http://www.w3.org/2000/svg">
<path d="M8.80993 26.0595C9.15993 25.8545 9.54243 25.6545 9.95743 25.4645C9.60686 25.9872 9.23143 26.4928 8.83243 26.9795C8.13243 27.822 7.58743 28.2695 7.24493 28.4095C7.2165 28.4216 7.18726 28.4316 7.15743 28.4395C7.13248 28.4049 7.11073 28.3681 7.09243 28.3295C6.95243 28.0545 6.95743 27.7895 7.19243 27.4295C7.45743 27.017 7.98993 26.5445 8.80993 26.0595ZM14.9474 21.942C14.6499 22.0045 14.3549 22.067 14.0574 22.137C14.4982 21.2737 14.915 20.3984 15.3074 19.512C15.7024 20.2445 16.1278 20.9601 16.5824 21.657C16.0399 21.737 15.4924 21.832 14.9474 21.942ZM21.2599 24.2895C20.8717 23.9763 20.5081 23.6336 20.1724 23.2645C20.7424 23.277 21.2574 23.3195 21.7024 23.3995C22.4949 23.542 22.8674 23.767 22.9974 23.922C23.0384 23.9653 23.0616 24.0224 23.0624 24.082C23.0537 24.2584 23.0022 24.43 22.9124 24.582C22.862 24.7038 22.7811 24.8106 22.6774 24.892C22.6258 24.9237 22.565 24.9369 22.5049 24.9295C22.2799 24.922 21.8599 24.7645 21.2599 24.2895ZM15.6974 12.4245C15.5974 13.0345 15.4274 13.7345 15.1974 14.497C15.1127 14.2115 15.0385 13.923 14.9749 13.632C14.7849 12.7495 14.7574 12.057 14.8599 11.577C14.9549 11.1345 15.1349 10.957 15.3499 10.8695C15.4652 10.8187 15.5874 10.785 15.7124 10.7695C15.7449 10.8445 15.7824 10.9995 15.7924 11.2645C15.8049 11.5695 15.7749 11.957 15.6974 12.427V12.4245Z" fill="#ED4C5C"/>
<path fill-rule="evenodd" clip-rule="evenodd" d="M5 0H25C26.3261 0 27.5979 0.526784 28.5355 1.46447C29.4732 2.40215 30 3.67392 30 5V35C30 36.3261 29.4732 37.5979 28.5355 38.5355C27.5979 39.4732 26.3261 40 25 40H5C3.67392 40 2.40215 39.4732 1.46447 38.5355C0.526784 37.5979 0 36.3261 0 35V5C0 3.67392 0.526784 2.40215 1.46447 1.46447C2.40215 0.526784 3.67392 0 5 0V0ZM5.4125 29.17C5.6375 29.62 5.9875 30.0275 6.5075 30.2175C7.025 30.405 7.5375 30.3175 7.9575 30.1425C8.7525 29.8175 9.545 29.0525 10.2725 28.1775C11.105 27.175 11.98 25.86 12.825 24.4025C14.4563 23.9189 16.1269 23.5792 17.8175 23.3875C18.5675 24.345 19.3425 25.17 20.0925 25.7625C20.7925 26.3125 21.6 26.77 22.4275 26.805C22.8782 26.8273 23.3245 26.7066 23.7025 26.46C24.09 26.2075 24.3775 25.8425 24.5875 25.42C24.8125 24.9675 24.95 24.495 24.9325 24.0125C24.9167 23.5368 24.7405 23.0804 24.4325 22.7175C23.8675 22.0425 22.9425 21.7175 22.0325 21.555C20.9286 21.384 19.8086 21.3421 18.695 21.43C17.7546 20.1006 16.9347 18.69 16.245 17.215C16.87 15.565 17.3375 14.005 17.545 12.73C17.635 12.185 17.6825 11.665 17.665 11.195C17.6619 10.7285 17.5534 10.2687 17.3475 9.85C17.2289 9.61894 17.0604 9.41718 16.8541 9.25935C16.6478 9.10152 16.409 8.99158 16.155 8.9375C15.65 8.83 15.13 8.9375 14.6525 9.13C13.71 9.505 13.2125 10.305 13.025 11.1875C12.8425 12.0375 12.925 13.0275 13.14 14.0275C13.36 15.0425 13.735 16.1475 14.215 17.265C13.4472 19.1745 12.5604 21.0339 11.56 22.8325C10.2716 23.2379 9.0297 23.7784 7.855 24.445C6.93 24.995 6.1075 25.645 5.6125 26.4125C5.0875 27.2275 4.925 28.1975 5.4125 29.17Z" fill="#ED4C5C"/>
</svg>
