<svg width="25" height="24" viewBox="0 0 25 24" fill="none" xmlns="http://www.w3.org/2000/svg">
<g clip-path="url(#clip0_902_8734)">
<path d="M8.4001 22.6125V17.4375L4.5376 20.2875C5.6251 21.3 6.9376 22.0875 8.4001 22.6125ZM15.9001 22.6125C17.3626 22.0875 18.6751 21.3 19.7626 20.2875L15.9001 17.4V22.6125ZM1.5376 15.75C1.6501 16.125 1.8001 16.4625 1.9876 16.8375L3.4501 15.75H1.5376ZM20.8501 15.75L22.3126 16.8375C22.4626 16.5 22.6126 16.125 22.7626 15.75H20.8501Z" fill="#2A5F9E"/>
<path d="M8.9625 14.25H1.125C1.2375 14.775 1.3875 15.2625 1.5375 15.75H3.45L1.9875 16.8375C2.2875 17.475 2.625 18.0375 3.0375 18.6L6.9 15.75H8.4V16.5L4.0125 19.725L4.5375 20.25L8.4 17.4375V22.6125C8.8875 22.8 9.375 22.9125 9.9 23.025V14.25H8.9625ZM23.175 14.25H14.4V23.025C14.925 22.9125 15.4125 22.7625 15.9 22.6125V17.4375L19.7625 20.25C20.2875 19.7625 20.7375 19.2375 21.1875 18.675L17.175 15.75H19.725L22.0125 17.4375C22.125 17.25 22.2375 17.025 22.3125 16.8375L20.85 15.75H22.7625C22.9125 15.2625 23.0625 14.775 23.175 14.25Z" fill="white"/>
<path d="M3.0376 18.6C3.3376 19.0125 3.6376 19.3875 3.9751 19.7625L8.4001 16.5375V15.7875H6.9001L3.0376 18.6ZM17.2126 15.75L21.2251 18.675C21.3751 18.4875 21.4876 18.3 21.6376 18.1125C21.6751 18.075 21.6751 18.0375 21.7126 18.0375C21.8251 17.85 21.9751 17.625 22.0876 17.4375L19.7251 15.75H17.2126Z" fill="#ED4C5C"/>
<path d="M15.9001 1.38745V6.56245L19.7626 3.71245C18.6751 2.69995 17.3626 1.91245 15.9001 1.38745ZM8.4001 1.38745C6.9376 1.91245 5.6251 2.69995 4.5376 3.71245L8.4001 6.59995V1.38745ZM22.7626 8.24995C22.6501 7.87495 22.5001 7.53745 22.3126 7.16245L20.8501 8.24995H22.7626ZM3.4501 8.24995L1.9876 7.16245C1.8376 7.53745 1.6876 7.87495 1.5376 8.24995H3.4501Z" fill="#2A5F9E"/>
<path d="M15.3375 9.74998H23.1375C23.025 9.22498 22.875 8.73748 22.725 8.24998H20.8125L22.275 7.16248C21.975 6.52498 21.6375 5.96248 21.225 5.39998L17.4 8.24998H15.9V7.49998L20.2875 4.27498L19.7625 3.74998L15.9 6.56248V1.38748C15.4125 1.19998 14.925 1.08748 14.4 0.974976V9.74998H15.3375ZM1.125 9.74998H9.9V0.974976C9.375 1.08748 8.8875 1.23748 8.4 1.38748V6.56248L4.5375 3.74998C4.0125 4.23748 3.5625 4.76248 3.1125 5.32498L7.125 8.24998H4.575L2.2875 6.56248C2.175 6.74998 2.0625 6.97498 1.9875 7.16248L3.45 8.24998H1.5375C1.3875 8.73748 1.2375 9.22498 1.125 9.74998Z" fill="white"/>
<path d="M21.2625 5.40005C20.9625 4.98755 20.6625 4.61255 20.325 4.23755L15.9 7.46255V8.21255H17.4L21.2625 5.40005ZM7.0875 8.25005L3.1125 5.32505C2.9625 5.51255 2.85 5.70005 2.7 5.88755C2.6625 5.92505 2.6625 5.96255 2.625 5.96255C2.5125 6.15005 2.3625 6.37505 2.25 6.56255L4.5375 8.25005H7.0875Z" fill="#ED4C5C"/>
<path d="M23.1749 9.75H14.3999V0.975C13.6874 0.825 12.9374 0.75 12.1499 0.75C11.3624 0.75 10.6124 0.825 9.8999 0.975V9.75H1.1249C0.974902 10.4625 0.899902 11.2125 0.899902 12C0.899902 12.7875 0.974902 13.5375 1.1249 14.25H9.8999V23.025C10.6124 23.175 11.3624 23.25 12.1499 23.25C12.9374 23.25 13.6874 23.175 14.3999 23.025V14.25H23.1749C23.3249 13.5375 23.3999 12.7875 23.3999 12C23.3999 11.2125 23.3249 10.4625 23.1749 9.75Z" fill="#ED4C5C"/>
</g>
<defs>
<clipPath id="clip0_902_8734">
<rect width="24" height="24" fill="white" transform="translate(0.149902)"/>
</clipPath>
</defs>
</svg>
