<svg width="24" height="24" viewBox="0 0 24 24" fill="none" xmlns="http://www.w3.org/2000/svg">
<g clip-path="url(#clip0_748_9016)">
<mask id="mask0_748_9016" style="mask-type:alpha" maskUnits="userSpaceOnUse" x="0" y="0" width="24" height="24">
<path d="M12 24C18.6274 24 24 18.6274 24 12C24 5.37258 18.6274 0 12 0C5.37258 0 0 5.37258 0 12C0 18.6274 5.37258 24 12 24Z" fill="white"/>
</mask>
<g mask="url(#mask0_748_9016)">
<path d="M0 0H24V24H0V0Z" fill="#0052B4"/>
<path d="M12.0004 4.6969L12.3894 5.89221H13.641L12.6238 6.62815L13.0129 7.82815L11.9957 7.08752L10.9785 7.82815L11.3676 6.62815L10.3504 5.89221H11.6066L12.0004 4.6969ZM6.83476 6.8344L7.95976 7.40627L8.8457 6.51565L8.64882 7.75783L9.76914 8.32971L8.52695 8.52658L8.33007 9.76877L7.7582 8.64377L6.51601 8.84533L7.40664 7.95471L6.83476 6.8344ZM4.69727 12L5.89258 11.611V10.3594L6.62851 11.3766L7.82851 10.9875L7.08789 12.0047L7.82851 13.0219L6.62851 12.6328L5.89258 13.65V12.3938L4.69727 12ZM6.83476 17.1656L7.40664 16.0406L6.51601 15.1547L7.7582 15.3516L8.33007 14.2313L8.52695 15.4735L9.76914 15.6703L8.64414 16.2422L8.8457 17.4844L7.95507 16.5938L6.83476 17.1656ZM12.0004 19.3031L11.6113 18.1078H10.3598L11.3769 17.3719L10.9879 16.1719L12.0051 16.9125L13.0223 16.1719L12.6332 17.3719L13.6504 18.1078H12.3941L12.0004 19.3031ZM17.166 17.1656L16.041 16.5938L15.1551 17.4844L15.3519 16.2422L14.2316 15.6703L15.4738 15.4735L15.6707 14.2313L16.2426 15.3563L17.4848 15.1547L16.5941 16.0453L17.166 17.1656ZM19.3035 12L18.1082 12.3891V13.6406L17.3723 12.6235L16.1723 13.0125L16.9129 11.9953L16.1723 10.9781L17.3723 11.3672L18.1082 10.35V11.6063L19.3035 12ZM17.166 6.8344L16.5941 7.9594L17.4848 8.84533L16.2426 8.64846L15.6707 9.76877L15.4738 8.52658L14.2316 8.32971L15.3566 7.75783L15.1551 6.51565L16.0457 7.40627L17.166 6.8344Z" fill="#FFDA44"/>
</g>
</g>
<defs>
<clipPath id="clip0_748_9016">
<rect width="24" height="24" fill="white"/>
</clipPath>
</defs>
</svg>
