<svg width="25" height="24" viewBox="0 0 25 24" fill="none" xmlns="http://www.w3.org/2000/svg">
<path d="M18.5 2.475C16.775 1.3875 14.7125 0.75 12.5 0.75C10.2875 0.75 8.225 1.3875 6.5 2.475V21.4875C8.225 22.575 10.2875 23.2125 12.5 23.2125C14.7125 23.2125 16.775 22.575 18.5 21.4875V2.475Z" fill="#F9F9F9"/>
<path d="M18.5 2.47498V21.4875C21.65 19.5375 23.75 15.9375 23.75 11.9625C23.75 7.98748 21.65 4.46248 18.5 2.47498ZM6.5 2.47498C3.35 4.46248 1.25 8.06248 1.25 12C1.25 15.9375 3.35 19.5375 6.5 21.525V2.47498ZM16.5875 11.85C16.4375 11.775 16.4 11.625 16.4375 11.55L16.8125 10.2L15.5 10.4625C15.4625 10.4625 15.3125 10.4625 15.275 10.2L15.1625 9.74998L14.2625 10.8C14.2625 10.8 13.6625 11.4375 13.85 10.4625L14.225 8.39998L13.5125 8.77498C13.475 8.77498 13.325 8.81248 13.1375 8.43748L12.5 7.12498L11.825 8.36248C11.6375 8.73748 11.4875 8.69998 11.45 8.69998L10.7375 8.32498L11.1125 10.3875C11.3 11.3625 10.7 10.725 10.7 10.725L9.8 9.67498L9.6875 10.125C9.6125 10.3875 9.5 10.3875 9.4625 10.3875L8.15 10.125L8.525 11.475C8.525 11.5875 8.525 11.7 8.375 11.775L8 12C8 12 9.5 13.2 9.9875 13.6125C10.1 13.6875 10.325 13.9125 10.25 14.175L10.0625 14.7L12.125 14.4C12.2375 14.4 12.4625 14.4 12.425 14.7375L12.3125 16.875H12.6875L12.575 14.7375C12.575 14.4 12.8 14.4 12.875 14.4L14.9375 14.7L14.75 14.175C14.675 13.9125 14.9 13.6875 15.0125 13.6125C15.5 13.2 17 12 17 12L16.5875 11.85Z" fill="#ED4C5C"/>
</svg>
