<svg width="14" height="11" viewBox="0 0 14 11" fill="none" xmlns="http://www.w3.org/2000/svg">
<path d="M1 2.21569C1 1.89327 1.12808 1.58405 1.35607 1.35607C1.58405 1.12808 1.89327 1 2.21569 1H11.9412C12.2636 1 12.5728 1.12808 12.8008 1.35607C13.0288 1.58405 13.1569 1.89327 13.1569 2.21569V8.29412C13.1569 8.61654 13.0288 8.92575 12.8008 9.15374C12.5728 9.38172 12.2636 9.5098 11.9412 9.5098H2.21569C1.89327 9.5098 1.58405 9.38172 1.35607 9.15374C1.12808 8.92575 1 8.61654 1 8.29412V2.21569Z" stroke="white" stroke-width="1.4" stroke-linecap="round" stroke-linejoin="round"/>
<path d="M7.07841 7.07821C8.08552 7.07821 8.90194 6.26179 8.90194 5.25468C8.90194 4.24757 8.08552 3.43115 7.07841 3.43115C6.0713 3.43115 5.25488 4.24757 5.25488 5.25468C5.25488 6.26179 6.0713 7.07821 7.07841 7.07821Z" stroke="white" stroke-width="1.4" stroke-linecap="round" stroke-linejoin="round"/>
<path d="M1 3.43137C1.64484 3.43137 2.26327 3.17521 2.71924 2.71924C3.17521 2.26327 3.43137 1.64484 3.43137 1M10.7255 9.5098C10.7255 8.86496 10.9817 8.24653 11.4376 7.79056C11.8936 7.33459 12.512 7.07843 13.1569 7.07843" stroke="white" stroke-width="1.4" stroke-linecap="round" stroke-linejoin="round"/>
</svg>
