<svg width="13" height="14" viewBox="0 0 13 14" fill="none" xmlns="http://www.w3.org/2000/svg">
<path d="M1.49199 5.7654C1.51644 5.46076 1.65475 5.17649 1.87936 4.96923C2.10397 4.76197 2.39841 4.64691 2.70403 4.64697H10.0334C10.339 4.64691 10.6335 4.76197 10.8581 4.96923C11.0827 5.17649 11.221 5.46076 11.2454 5.7654L11.7335 11.8438C11.747 12.0111 11.7256 12.1794 11.6708 12.338C11.616 12.4966 11.529 12.6421 11.4152 12.7655C11.3014 12.8888 11.1633 12.9872 11.0096 13.0546C10.8559 13.1219 10.6899 13.1567 10.5221 13.1568H2.21533C2.04752 13.1567 1.88153 13.1219 1.72782 13.0546C1.57412 12.9872 1.43602 12.8888 1.32222 12.7655C1.20842 12.6421 1.12139 12.4966 1.06661 12.338C1.01182 12.1794 0.990472 12.0111 1.0039 11.8438L1.49199 5.7654V5.7654Z" stroke="white" stroke-width="1.4" stroke-linecap="round" stroke-linejoin="round"/>
<path d="M8.80025 6.47059V3.43137C8.80025 2.78653 8.54408 2.1681 8.08811 1.71213C7.63214 1.25616 7.01371 1 6.36887 1C5.72403 1 5.1056 1.25616 4.64963 1.71213C4.19366 2.1681 3.9375 2.78653 3.9375 3.43137V6.47059" stroke="white" stroke-width="1.4" stroke-linecap="round" stroke-linejoin="round"/>
</svg>
