<svg width="33" height="37" viewBox="0 0 33 37" fill="none" xmlns="http://www.w3.org/2000/svg">
<path d="M13.1504 1L18.3141 3.93061L18.3749 9.11659C18.3185 9.74664 18.1046 10.3526 17.7527 10.879C17.4009 11.4054 16.9223 11.8355 16.3608 12.13L8.22304 16.9113C7.67446 17.2145 7.21853 17.6602 6.9037 18.201C6.58887 18.7418 6.4269 19.3576 6.43501 19.9828L6.37507 23.9054L1.04182 20.962L1.01356 17.3937C0.95349 16.7002 1.09381 16.0042 1.41795 15.3877C1.74208 14.7713 2.23647 14.2603 2.84269 13.915L11.925 8.38415C12.3333 8.05729 12.6555 7.63615 12.8638 7.15719C13.0721 6.67824 13.1602 6.15589 13.1204 5.63537L13.1504 1ZM22.8347 14.638C22.6162 14.5627 22.3837 14.537 22.154 14.5629C21.9244 14.5887 21.7034 14.6655 21.5073 14.7874L12.8952 19.8061C12.2887 20.1513 11.794 20.6624 11.4697 21.279C11.1454 21.8957 11.005 22.592 11.0652 23.2856L11.0935 26.8522L16.4284 29.7948L16.4884 25.8722C16.4803 25.2473 16.6422 24.6319 16.9569 24.0914C17.2716 23.5509 17.7273 23.1055 18.2755 22.8024L26.7387 17.9716C27.4023 17.555 27.4923 17.1922 27.0213 16.9335L22.8347 14.638ZM27.0906 24.6165C26.9139 24.5179 26.7138 24.4686 26.5113 24.4735C26.3089 24.4785 26.1114 24.5376 25.9397 24.6446L23.5309 26.0105C22.9242 26.3558 22.4294 26.867 22.1051 27.4838C21.7808 28.1006 21.6405 28.7971 21.7009 29.4909L21.7291 33.0574L27.0641 36L27.124 32.0774C27.116 31.4525 27.2779 30.8371 27.5926 30.2966C27.9072 29.7561 28.3629 29.3107 28.9112 29.0077L32 27.3089L27.0906 24.6165Z" stroke="url(#paint0_linear_917_3105)" stroke-width="2" stroke-linecap="round" stroke-linejoin="round"/>
<defs>
<linearGradient id="paint0_linear_917_3105" x1="31.3999" y1="37.7073" x2="7.10828" y2="-4.18802" gradientUnits="userSpaceOnUse">
<stop stop-color="#00A3FF"/>
<stop offset="0.515625" stop-color="#6D53D2"/>
<stop offset="1" stop-color="#A355D3"/>
</linearGradient>
</defs>
</svg>
