<svg width="47" height="53" viewBox="0 0 47 53" fill="none" xmlns="http://www.w3.org/2000/svg">
<path d="M18.6377 1L26.1333 5.27032L26.2216 12.827C26.1397 13.7451 25.8292 14.628 25.3185 15.3951C24.8078 16.1621 24.1131 16.7888 23.2979 17.218L11.4851 24.1851C10.6887 24.6269 10.0269 25.2763 9.56988 26.0643C9.11287 26.8524 8.87776 27.7496 8.88953 28.6607L8.80252 34.3764L1.06071 30.0874L1.01969 24.8879C0.932485 23.8775 1.13618 22.8632 1.6067 21.965C2.07721 21.0668 2.79488 20.3221 3.67487 19.819L16.8588 11.7598C17.4515 11.2835 17.9193 10.6698 18.2217 9.97191C18.5241 9.274 18.6519 8.51287 18.5941 7.75439L18.6377 1ZM32.6955 20.8726C32.3784 20.7628 32.0408 20.7254 31.7075 20.7631C31.3741 20.8007 31.0533 20.9125 30.7687 21.0903L18.2672 28.4032C17.3868 28.9062 16.6687 29.651 16.198 30.5495C15.7272 31.448 15.5235 32.4626 15.6108 33.4733L15.6518 38.6703L23.3961 42.9581L23.4831 37.2423C23.4714 36.3318 23.7064 35.4351 24.1632 34.6475C24.62 33.8599 25.2815 33.2108 26.0774 32.7693L38.3626 25.73C39.326 25.123 39.4565 24.5943 38.7728 24.2174L32.6955 20.8726ZM38.8735 35.4126C38.6169 35.269 38.3265 35.1971 38.0326 35.2043C37.7387 35.2115 37.4521 35.2976 37.2028 35.4536L33.7061 37.4439C32.8255 37.9469 32.1073 38.6919 31.6365 39.5907C31.1657 40.4894 30.9621 41.5043 31.0497 42.5152L31.0907 47.7123L38.835 52L38.922 46.2843C38.9103 45.3737 39.1453 44.477 39.6021 43.6894C40.0589 42.9018 40.7204 42.2527 41.5163 41.8112L46 39.3358L38.8735 35.4126Z" stroke="url(#paint0_linear_748_8561)" stroke-width="2" stroke-linecap="round" stroke-linejoin="round"/>
<defs>
<linearGradient id="paint0_linear_748_8561" x1="45.1288" y1="54.4878" x2="9.6658" y2="-6.44266" gradientUnits="userSpaceOnUse">
<stop stop-color="#00A3FF"/>
<stop offset="0.515625" stop-color="#6D53D2"/>
<stop offset="1" stop-color="#A355D3"/>
</linearGradient>
</defs>
</svg>
