<svg width="15" height="14" viewBox="0 0 15 14" fill="none" xmlns="http://www.w3.org/2000/svg">
<path d="M14.3418 8.12085C14.1463 8.05987 13.9346 8.0787 13.7529 8.17325C13.5712 8.2678 13.4342 8.4304 13.3718 8.62559C13.0052 9.74726 12.2905 10.7226 11.3317 11.4098C10.3729 12.0969 9.21995 12.4599 8.04069 12.4461C6.58208 12.4627 5.17642 11.8998 4.13195 10.8808C3.08748 9.86183 2.48945 8.46996 2.469 7.01041C2.48945 5.55086 3.08748 4.15899 4.13195 3.14001C5.17642 2.12103 6.58208 1.55812 8.04069 1.57471C9.35801 1.57153 10.6348 2.03039 11.6491 2.87152L9.96517 2.59197C9.86425 2.57535 9.76104 2.57886 9.66148 2.6023C9.56192 2.62573 9.46797 2.66863 9.38504 2.72853C9.30211 2.78843 9.23182 2.86414 9.17823 2.95131C9.12464 3.03849 9.0888 3.1354 9.07277 3.23648C9.05616 3.33747 9.05967 3.44075 9.08309 3.54038C9.10652 3.64001 9.14939 3.73402 9.20924 3.81701C9.2691 3.9 9.34476 3.97033 9.43188 4.02396C9.51899 4.07758 9.61584 4.11345 9.71685 4.12949L13.0071 4.67306H13.139C13.229 4.67296 13.3183 4.65719 13.4029 4.62647C13.4313 4.61567 13.4576 4.5999 13.4805 4.57988C13.5361 4.55917 13.5884 4.53039 13.6357 4.49446L13.7055 4.40904C13.7055 4.37021 13.7753 4.33915 13.8064 4.29256C13.8374 4.24597 13.8064 4.21491 13.8452 4.18385C13.8666 4.13862 13.8848 4.09191 13.8995 4.04407L14.4815 0.93796C14.5009 0.835985 14.5 0.731193 14.4789 0.629565C14.4577 0.527938 14.4168 0.431466 14.3585 0.345659C14.3001 0.259851 14.2254 0.186388 14.1387 0.129463C14.0519 0.0725385 13.9548 0.0332674 13.8529 0.0138921C13.751 -0.00548319 13.6463 -0.00458328 13.5448 0.0165405C13.4432 0.0376643 13.3468 0.0785982 13.261 0.137005C13.0879 0.254963 12.9686 0.436932 12.9295 0.64288L12.72 1.76885C11.4209 0.642291 9.75967 0.0219919 8.04069 0.0216574C6.17047 0.0050919 4.37007 0.731634 3.03455 2.04186C1.69903 3.35208 0.937472 5.13897 0.916992 7.01041C0.937472 8.88186 1.69903 10.6687 3.03455 11.979C4.37007 13.2892 6.17047 14.0157 8.04069 13.9992C9.55633 14.0225 11.0394 13.5582 12.2716 12.6747C13.5037 11.7912 14.4198 10.5352 14.885 9.09151C14.9145 8.99209 14.9237 8.88778 14.9122 8.78473C14.9007 8.68167 14.8687 8.58197 14.8181 8.4915C14.7674 8.40103 14.6992 8.32162 14.6174 8.25796C14.5356 8.1943 14.4419 8.14768 14.3418 8.12085Z" fill="black"/>
</svg>
