<svg width="16" height="16" viewBox="0 0 16 16" fill="none" xmlns="http://www.w3.org/2000/svg">
<path d="M6.31918 15C9.25697 15 11.6384 12.6186 11.6384 9.68083C11.6384 8.45077 11.2202 7.3187 10.5203 6.41759L11.2394 5.69845L12.3295 6.78853C12.3561 6.81461 12.3919 6.82921 12.4292 6.82921C12.4665 6.82921 12.5023 6.81461 12.529 6.78853L13.2254 6.09214C13.2514 6.06549 13.266 6.02969 13.266 5.99241C13.266 5.95512 13.2514 5.91932 13.2254 5.89267L12.1353 4.80259L12.9209 4.01696L14.011 5.10704C14.0376 5.13312 14.0734 5.14772 14.1107 5.14772C14.148 5.14772 14.1838 5.13312 14.2105 5.10704L14.9068 4.41065C14.9329 4.38401 14.9475 4.3482 14.9475 4.31092C14.9475 4.27363 14.9329 4.23783 14.9068 4.21119L13.8168 3.1211L14.9593 1.97853C14.9854 1.95222 15 1.9167 15 1.87967C15 1.84265 14.9854 1.80712 14.9593 1.78081L14.2192 1.04068C14.165 0.986439 14.0757 0.986439 14.0215 1.04068L9.58417 5.47799C8.65009 4.75348 7.50131 4.3607 6.31918 4.36166C3.38138 4.36166 1 6.74304 1 9.68083C1 12.6186 3.38138 15 6.31918 15ZM3.49861 6.86027C4.251 6.10614 5.25359 5.69145 6.31918 5.69145C7.38476 5.69145 8.38736 6.10614 9.13974 6.86027C9.89387 7.61265 10.3086 8.61525 10.3086 9.68083C10.3086 10.7464 9.89387 11.749 9.13974 12.5014C8.38736 13.2555 7.38476 13.6702 6.31918 13.6702C5.25359 13.6702 4.251 13.2555 3.49861 12.5014C2.74448 11.749 2.32979 10.7464 2.32979 9.68083C2.32979 8.61525 2.74448 7.61265 3.49861 6.86027Z" fill="black" stroke="black" stroke-width="0.2"/>
</svg>
