<svg width="16" height="16" viewBox="0 0 16 16" fill="none" xmlns="http://www.w3.org/2000/svg">
<path d="M3.43699 10.52C4.82875 10.52 5.95699 9.39174 5.95699 7.99998C5.95699 6.60822 4.82875 5.47998 3.43699 5.47998C2.04523 5.47998 0.916992 6.60822 0.916992 7.99998C0.916992 9.39174 2.04523 10.52 3.43699 10.52Z" stroke="black" stroke-width="1.5" stroke-linecap="round" stroke-linejoin="round"/>
<path d="M12.397 15C13.7887 15 14.917 13.8717 14.917 12.48C14.917 11.0882 13.7887 9.95996 12.397 9.95996C11.0052 9.95996 9.87695 11.0882 9.87695 12.48C9.87695 13.8717 11.0052 15 12.397 15Z" stroke="black" stroke-width="1.5" stroke-linecap="round" stroke-linejoin="round"/>
<path d="M12.397 6.04C13.7887 6.04 14.917 4.91176 14.917 3.52C14.917 2.12824 13.7887 1 12.397 1C11.0052 1 9.87695 2.12824 9.87695 3.52C9.87695 4.91176 11.0052 6.04 12.397 6.04Z" stroke="black" stroke-width="1.5" stroke-linecap="round" stroke-linejoin="round"/>
<path d="M5.67676 6.88014L10.1568 4.64014M5.67676 9.12014L10.1568 11.3601L5.67676 9.12014Z" stroke="black" stroke-width="1.5" stroke-linecap="round" stroke-linejoin="round"/>
</svg>
