<svg width="14" height="15" viewBox="0 0 14 15" fill="none" xmlns="http://www.w3.org/2000/svg">
<path d="M9.8 0.0834961H4.2C1.8837 0.0834961 0 1.9672 0 4.2835V13.3835C0 13.5691 0.0737498 13.7472 0.205025 13.8785C0.336301 14.0097 0.514348 14.0835 0.7 14.0835H9.8C12.1163 14.0835 14 12.1998 14 9.8835V4.2835C14 1.9672 12.1163 0.0834961 9.8 0.0834961ZM12.6 9.8835C12.6 11.4277 11.3442 12.6835 9.8 12.6835H1.4V4.2835C1.4 2.7393 2.6558 1.4835 4.2 1.4835H9.8C11.3442 1.4835 12.6 2.7393 12.6 4.2835V9.8835Z" fill="black"/>
<path d="M3.50098 4.9834H10.501V6.3834H3.50098V4.9834ZM3.50098 7.7834H8.40098V9.1834H3.50098V7.7834Z" fill="black"/>
</svg>
