<svg width="21" height="22" viewBox="0 0 21 22" fill="none" xmlns="http://www.w3.org/2000/svg">
<path d="M10.15 0.850098C9.56716 0.850098 9.09091 1.32635 9.09091 1.90919V3.72737C9.09091 4.31021 9.56716 4.78646 10.15 4.78646C10.7328 4.78646 11.2091 4.31021 11.2091 3.72737V1.90919C11.2091 1.32635 10.7328 0.850098 10.15 0.850098Z" fill="white"/>
<path d="M4.04545 3.83879C3.90667 3.83879 3.76924 3.86616 3.64105 3.91933C3.51286 3.97251 3.39662 4.05023 3.29859 4.14847C3.20035 4.2465 3.12241 4.36295 3.06924 4.49115C3.01606 4.61934 2.98869 4.75677 2.98869 4.89555C2.98869 5.03434 3.01606 5.17176 3.06924 5.29996C3.12241 5.42815 3.20035 5.5446 3.29859 5.64264L4.26212 6.60616C4.67447 7.01852 5.35235 7.02052 5.75743 6.60478C6.15692 6.19478 6.17213 5.51838 5.75539 5.11154L4.79254 4.14869C4.6945 4.05045 4.57805 3.97251 4.44986 3.91933C4.32166 3.86616 4.18424 3.83879 4.04545 3.83879Z" fill="white"/>
<path d="M16.2545 3.83879C16.1158 3.83879 15.9783 3.86616 15.8501 3.91933C15.7219 3.97251 15.6055 4.05045 15.5075 4.14869L14.5439 5.11221C14.1316 5.52456 14.1296 6.20245 14.5453 6.60753C14.9553 7.00701 15.6324 7.02151 16.0393 6.60478L17.0014 5.64264C17.0996 5.5446 17.1776 5.42815 17.2308 5.29996C17.2839 5.17176 17.3113 5.03434 17.3113 4.89555C17.3113 4.75677 17.2839 4.61934 17.2308 4.49115C17.1776 4.363 17.0997 4.24659 17.0015 4.14858C16.9035 4.05039 16.7871 3.97249 16.659 3.91933C16.5308 3.86616 16.3933 3.83879 16.2545 3.83879Z" fill="white"/>
<path fill-rule="evenodd" clip-rule="evenodd" d="M10.15 6.30464C7.55807 6.30464 5.45455 8.40816 5.45455 11.0001C5.45455 13.592 7.55807 15.6956 10.15 15.6956C12.7419 15.6956 14.8455 13.592 14.8455 11.0001C14.8455 8.40816 12.7419 6.30464 10.15 6.30464ZM7.57273 11.0001C7.57273 9.58294 8.73284 8.42283 10.15 8.42283C11.5672 8.42283 12.7273 9.58294 12.7273 11.0001C12.7273 12.4173 11.5672 13.5774 10.15 13.5774C8.73284 13.5774 7.57273 12.4173 7.57273 11.0001Z" fill="white"/>
<path d="M1.05909 9.94101C0.476248 9.94101 0 10.4173 0 11.0001C0 11.5829 0.476248 12.0592 1.05909 12.0592H2.87727C3.46012 12.0592 3.93636 11.5829 3.93636 11.0001C3.93636 10.4173 3.46012 9.94101 2.87727 9.94101H1.05909Z" fill="white"/>
<path d="M17.4227 9.94101C16.8399 9.94101 16.3636 10.4173 16.3636 11.0001C16.3636 11.5829 16.8399 12.0592 17.4227 12.0592H19.2409C19.8238 12.0592 20.3 11.5829 20.3 11.0001C20.3 10.4173 19.8238 9.94101 19.2409 9.94101H17.4227Z" fill="white"/>
<path d="M5.00909 15.0842C4.8703 15.0842 4.73288 15.1116 4.60469 15.1648C4.47649 15.218 4.36004 15.2959 4.26201 15.3941L3.29848 16.3577C2.88613 16.77 2.88412 17.4479 3.29987 17.853C3.70985 18.2525 4.38624 18.2677 4.79308 17.851L4.7938 17.8502L5.75596 16.8881C5.8542 16.7901 5.93213 16.6736 5.98531 16.5454C6.03849 16.4172 6.06586 16.2798 6.06586 16.141C6.06586 16.0022 6.03849 15.8648 5.98531 15.7366C5.93215 15.6085 5.85425 15.492 5.75607 15.394C5.65805 15.2958 5.54164 15.2179 5.4135 15.1648C5.2853 15.1116 5.14788 15.0842 5.00909 15.0842Z" fill="white"/>
<path d="M15.2909 15.0842C15.1521 15.0842 15.0147 15.1116 14.8865 15.1648C14.7583 15.218 14.6421 15.2957 14.544 15.3939C14.4458 15.492 14.3679 15.6084 14.3147 15.7366C14.2615 15.8648 14.2341 16.0022 14.2341 16.141C14.2341 16.2798 14.2615 16.4172 14.3147 16.5454C14.3679 16.6736 14.4458 16.7901 14.544 16.8881L15.5076 17.8516C15.9197 18.2637 16.597 18.266 17.0022 17.851C17.1 17.7531 17.1777 17.6369 17.2308 17.509C17.2839 17.3809 17.3113 17.2434 17.3113 17.1046C17.3113 16.9659 17.2839 16.8284 17.2308 16.7002C17.1776 16.572 17.0996 16.4556 17.0014 16.3576L16.038 15.3941C15.94 15.2959 15.8235 15.218 15.6953 15.1648C15.5671 15.1116 15.4297 15.0842 15.2909 15.0842Z" fill="white"/>
<path d="M10.15 17.2137C9.56716 17.2137 9.09091 17.69 9.09091 18.2728V20.091C9.09091 20.6738 9.56716 21.1501 10.15 21.1501C10.7328 21.1501 11.2091 20.6738 11.2091 20.091V18.2728C11.2091 17.69 10.7328 17.2137 10.15 17.2137Z" fill="white"/>
</svg>
