<svg width="19" height="22" viewBox="0 0 19 22" fill="none" xmlns="http://www.w3.org/2000/svg">
<path d="M7.66311 1.33179L10.4948 2.92269L10.5282 5.73793C10.4972 6.07996 10.3799 6.40889 10.187 6.69465C9.99405 6.98042 9.73161 7.21391 9.42365 7.37379L4.96102 9.96937C4.66019 10.134 4.41016 10.3759 4.23751 10.6695C4.06486 10.9631 3.97604 11.2973 3.98049 11.6367L3.94762 13.7661L1.02293 12.1683L1.00744 10.2312C0.974494 9.85478 1.05145 9.47692 1.2292 9.14228C1.40695 8.80764 1.67807 8.53021 2.01051 8.34279L6.99111 5.34032C7.21503 5.16289 7.39174 4.93427 7.50597 4.67426C7.6202 4.41426 7.6685 4.1307 7.64668 3.84813L7.66311 1.33179ZM12.9738 8.7353C12.8541 8.69441 12.7265 8.68047 12.6006 8.6945C12.4747 8.70853 12.3535 8.75018 12.246 8.8164L7.52317 11.5408C7.19057 11.7282 6.9193 12.0057 6.74146 12.3404C6.56362 12.6751 6.48664 13.0531 6.51963 13.4297L6.53513 15.3658L9.46075 16.9632L9.49362 14.8338C9.4892 14.4946 9.57798 14.1605 9.75055 13.8671C9.92311 13.5737 10.173 13.3319 10.4737 13.1674L15.1148 10.5449C15.4787 10.3188 15.528 10.1218 15.2697 9.98142L12.9738 8.7353ZM15.3078 14.1522C15.2108 14.0987 15.1011 14.0719 14.9901 14.0746C14.879 14.0773 14.7708 14.1093 14.6766 14.1674L13.3556 14.9089C13.0229 15.0963 12.7516 15.3739 12.5738 15.7087C12.3959 16.0435 12.319 16.4216 12.3521 16.7983L12.3676 18.7344L15.2932 20.3318L15.3261 18.2024C15.3217 17.8632 15.4104 17.5291 15.583 17.2357C15.7556 16.9423 16.0055 16.7004 16.3061 16.536L18 15.6138L15.3078 14.1522Z" stroke="white" stroke-width="2" stroke-linecap="round" stroke-linejoin="round"/>
</svg>
