<svg width="50" height="50" viewBox="0 0 50 50" fill="none" xmlns="http://www.w3.org/2000/svg">
<ellipse cx="25" cy="25" rx="25" ry="25" transform="rotate(-180 25 25)" fill="url(#paint0_linear_748_9546)"/>
<path d="M25.1366 15.6728C24.6557 15.7543 24.3038 16.1709 24.3038 16.6587V23.093C24.3038 23.6453 24.7515 24.093 25.3038 24.093H34C34.5523 24.093 35 23.6453 35 23.093V15.1839C35 14.5648 34.4432 14.0944 33.8328 14.1979L25.1366 15.6728ZM24.3038 33.3704C24.3038 33.8592 24.6572 34.2764 25.1394 34.3568L33.8356 35.806C34.4451 35.9075 35 35.4375 35 34.8196V26.9127C35 26.3604 34.5523 25.9127 34 25.9127H25.3038C24.7515 25.9127 24.3038 26.3604 24.3038 26.9127V33.3704ZM13 23.0901C13 23.6424 13.4477 24.0901 14 24.0901H21.0414C21.5936 24.0901 22.0414 23.6424 22.0414 23.0901V17.2987C22.0414 16.6797 21.4846 16.2093 20.8742 16.3128L13.8328 17.5068C13.3519 17.5884 13 18.005 13 18.4927V23.0901ZM13 31.5651C13 32.0539 13.3534 32.4711 13.8356 32.5514L20.8769 33.7254C21.4865 33.827 22.0414 33.3569 22.0414 32.739V26.9127C22.0414 26.3604 21.5936 25.9127 21.0414 25.9127H14C13.4477 25.9127 13 26.3604 13 26.9127V31.5651Z" fill="white"/>
<defs>
<linearGradient id="paint0_linear_748_9546" x1="-3.22165" y1="-10" x2="59.6553" y2="-4.84043" gradientUnits="userSpaceOnUse">
<stop stop-color="#005EC7"/>
<stop offset="1" stop-color="#0080B7"/>
</linearGradient>
</defs>
</svg>
